<svg class="svg-icon" style="width: 1em; height: 1em;vertical-align: middle;fill: currentColor;overflow: hidden;" viewBox="0 0 1024 1024" version="1.1" xmlns="http://www.w3.org/2000/svg"><path d="M313.137742 732.738149l519.812818-519.812818c14.375585-14.375585 37.91821-14.375585 52.293794 0 14.375585 14.375585 14.375585 37.91821 0 52.293794l-545.855544 545.855544c-14.375585 14.792269-37.91821 14.583927-52.502137 0.208342l-148.131027-148.131027c-14.375585-14.375585-14.375585-37.91821 0-52.293795 14.375585-14.375585 37.91821-14.375585 52.293794 0l122.088302 121.87996z" fill="#26A69A" /><path d="M312.512716 822.116785c-9.375381-0.208342-18.542421-3.750153-25.626043-10.833774l-148.131027-148.131027c-14.375585-14.375585-14.375585-37.91821 0-52.293795 14.375585-14.375585 37.91821-14.375585 52.293794 0l121.463276 121.463276v89.79532z" fill="#00BFA5" /></svg>